<?xml version="1.0" encoding="UTF-8"?>
<svg id="Camada_2" data-name="Camada 2" xmlns="http://www.w3.org/2000/svg" viewBox="0 0 632 520">
  <defs>
    <style>
      .cls-1 {
        fill: #CEAE75;
        stroke-width: 0px;
      }
    </style>
  </defs>
  <path class="cls-1" d="m465.51,303.43c.51,21.02-2.27,40.97-9.48,60.15-5.46,14.53-13.64,27.16-24.87,38.19-15.08,14.81-32.97,23.38-53.35,27.24-9.05,1.72-18.26,2.1-27.52,1.97-31.84-.44-61.26-10.2-89.95-22.85-20.62-9.09-39.92-20.53-57.82-34.22-19.71-15.07-36.36-32.96-47.74-55.27-13.62-26.71-13.46-53.24,1.46-79.49,8.29-14.58,19.2-26.99,31.21-38.53,7.64-7.35,15.43-14.57,22.74-22.23,10.5-10.99,20.4-22.54,30.45-33.94,9.56-10.84,19.04-21.74,28.87-32.36,11.22-12.14,23.24-23.29,36.4-33.23,11.07-8.36,23.39-14.44,37.32-15.01,15.33-.63,29.49,3.83,41.64,13.79,12.11,9.92,20.48,22.62,27.93,36.15,9.58,17.42,17.79,35.47,24.69,54.06,12.16,32.75,21.36,66.3,25.84,101.05,1.5,11.66,2.53,23.33,2.17,34.52Zm-34.48-23.66c-.32-17.28-1.48-33.18-3.69-49.04-5.1-36.7-13.89-72.35-29.8-105.98-6.17-13.04-13.41-25.38-24.97-34.56-9.31-7.39-19.76-10.25-31.5-8.08-11.75,2.17-21.08,8.77-29.55,16.7-10.11,9.46-19.14,19.91-27.84,30.69-13.33,16.52-25.86,33.6-37.6,51.25-8.07,12.14-15.39,24.75-22.26,37.65-8.41,15.81-15.95,31.95-20.84,49.21-5.83,20.59-4.6,40.8,4.1,60.39,6.1,13.73,14.86,25.51,25.9,35.78,11.54,10.73,24.39,19.46,38.49,26.19,17.43,8.32,35.68,13.73,55.19,15.1,10.44.73,20.71.56,30.79-1.56,32.1-6.74,52.72-26.77,63.78-57.11,7.98-21.91,9.18-44.88,9.78-66.62Z"/>
</svg>